<?xml version="1.0" standalone="no"?>
<!DOCTYPE svg PUBLIC "-//W3C//DTD SVG 20010904//EN" "http://www.w3.org/TR/2001/REC-SVG-20010904/DTD/svg10.dtd">
<svg version="1.0" xmlns="http://www.w3.org/2000/svg" width="700pt" height="700pt" viewBox="0 0 700 700" preserveAspectRatio="xMidYMid meet">
  <g transform="translate(0.000000,700.000000) scale(0.100000,-0.100000)" fill="#000000" stroke="none">
    <path d="M3330 6989 c-386 -39 -789 -159 -1140 -339 -298 -153 -603 -381 -835
    -625 -672 -706 -985 -1675 -850 -2630 136 -960 674 -1808 1480 -2334 874
    -571 1986 -685 2960 -304 447 175 847 454 1170 817 273 307 475 657 607 1051
    115 344 162 636 162 1015 0 379 -47 671 -162 1015 -132 394 -334 744 -607
    1051 -323 363 -723 642 -1170 817 -385 151 -843 217 -1245 179z m585 -914
    c706 -118 1315 -526 1685 -1130 235 -384 345 -785 345 -1255 0 -470 -110
    -871 -345 -1255 -370 -604 -979 -1012 -1685 -1130 -185 -31 -515 -31 -700 0
    -706 118 -1315 526 -1685 1130 -235 384 -345 785 -345 1255 0 470 110 871
    345 1255 370 604 979 1012 1685 1130 185 31 515 31 700 0z"/>
    <path d="M3425 5219 c-168 -22 -378 -94 -530 -181 -774 -443 -1002 -1435 -490
    -2133 424 -578 1236 -755 1880 -410 779 417 1001 1426 475 2163 -296 415
    -823 625 -1335 561z"/>
  </g>
</svg>
